<svg xmlns="http://www.w3.org/2000/svg" width="38" height="22" viewBox="0 0 38 22">
    <defs>
        <clipPath id="rkon4mszwa">
            <path data-name="Rectangle 33" transform="translate(156 417)" style="fill:none" d="M0 0h38v22H0z"/>
        </clipPath>
    </defs>
    <g data-name="Mask Group 8" transform="translate(-156 -417)" style="clip-path:url(#rkon4mszwa)">
        <g data-name="Group 134">
            <path data-name="Path 1279" d="M7.083 5.982A3.02 3.02 0 0 0 3.5 8.271a10.7 10.7 0 0 0-1.813.5C1.1 9.08.651 9.694 0 9.852c.033-1.3 1.015-2.337.64-3.7a2.618 2.618 0 0 0-.122-.342A1.636 1.636 0 0 0 1.864 5a1.6 1.6 0 0 0-.007-1.559 3.82 3.82 0 0 0 1.607-.267 1.265 1.265 0 0 0 .769-1.3c-.039-.188-.1-.45.082-.516a.4.4 0 0 1 .21.009C5.2 1.506 8.668.737 8.754 0c-.023.2-.187 3.587.391 3.351-1.122.459-2.253 1.443-2.062 2.631m.833-4.5C6.62 3.653 3.825 4.288 2.477 6.424a.154.154 0 0 0 .262.162c1.343-2.127 4.136-2.76 5.434-4.94.1-.168-.157-.337-.257-.169" transform="rotate(56.98 -305.426 361.646)" style="fill:#40645c"/>
            <path data-name="Path 1280" d="M12.972 6.618c-1.265-.67-3.043-.935-4.053.172A3.512 3.512 0 0 0 4.086 5.3a11.9 11.9 0 0 0-1.811-1.271C1.549 3.728.628 3.8 0 3.327c1.286-.993 3-.9 4.048-2.315A3.442 3.442 0 0 0 4.292.63a1.886 1.886 0 0 0 1.766.6A2.109 2.109 0 0 0 7.561 0a4.23 4.23 0 0 0 1.433 1.265 1.577 1.577 0 0 0 1.819-.313c.154-.183.362-.445.559-.33a.439.439 0 0 1 .144.2c.364.732 3.638 3.308 4.415 2.808-.21.135-3.609 2.643-2.958 2.988m.42-2.577c-.51.062-1 .21-1.513.27a4.915 4.915 0 0 1-1.99-.255c-.718-.213-1.433-.43-2.158-.62-1.007-.264-2.533-.776-3.509-.2-.17.1-.022.367.148.267 1.067-.626 2.905.127 4 .424a21.425 21.425 0 0 0 2.49.674 9.529 9.529 0 0 0 2.587-.258c.2-.024.137-.322-.059-.3" transform="rotate(70 -206.182 338.054)" style="fill:#40645c"/>
            <path data-name="Path 1281" d="M4.436 13.056c-.636-1.364-1.294-2.577-2.926-2.819.555-.2.465-1.318.288-1.683A8.205 8.205 0 0 0 0 6.536a1.685 1.685 0 0 0 1-1.674 3.533 3.533 0 0 0-.876-2.047c1.075.48 1.989-1.749 2.25-2.46.076-.209.02-.182.1-.262.18-.183.4-.063.512.106a1.008 1.008 0 0 1 .08.583 4.266 4.266 0 0 0 .973 2.914c-1.118.753.608 2.162 1.285 2.669-.491-.115-.665 1.105-.64 1.276a3.2 3.2 0 0 0 1.149 1.831c-.679-.02-1.211 2.887-1.4 3.584m-.852-4.593a17.712 17.712 0 0 1-.565-6.326c.032-.192-.277-.2-.308-.011a17.9 17.9 0 0 0 .574 6.408c.037.193.336.121.3-.071" transform="rotate(56.98 -308.609 372.831)" style="fill:#40645c"/>
            <path data-name="Path 1282" d="M.026 17.978C2.612 13.5 17.477 1.985 22.307.015c.218-.089.368.243.149.332C17.678 2.3 2.879 13.771.322 18.2c-.116.2-.411-.018-.3-.218" transform="rotate(56.98 -294.07 376.596)" style="fill:#40645c"/>
            <path data-name="Path 1283" d="M.037 5.754A8.371 8.371 0 0 1 1.563.073c.136-.19.432.028.3.218A7.984 7.984 0 0 0 .4 5.7c.022.232-.341.288-.363.055" transform="rotate(56.98 -306.62 376.608)" style="fill:#40645c"/>
            <g data-name="Group 133">
                <path data-name="Path 1284" d="M.078 2.127A20.184 20.184 0 0 1 3.639.688 35.88 35.88 0 0 1 7.375 0a.139.139 0 0 1 .045.274C6.2.471 4.962.626 3.767.941A19.6 19.6 0 0 0 .193 2.382c-.162.079-.276-.176-.114-.255" transform="rotate(77.95 -173.456 319.639)" style="fill:#40645c"/>
                <path data-name="Path 1285" d="M4.376.222a7.451 7.451 0 0 1-4.22 2.767c-.176.043-.22-.232-.045-.274A7.149 7.149 0 0 0 4.15.055c.107-.143.334.023.227.167" transform="rotate(77.95 -174.98 321.716)" style="fill:#40645c"/>
                <path data-name="Path 1286" d="M.114.222A15.912 15.912 0 0 1 4.519.1a.139.139 0 0 1-.028.276A15.631 15.631 0 0 0 .159.5.139.139 0 0 1 .114.222" transform="rotate(77.95 -174.808 321.54)" style="fill:#40645c"/>
                <path data-name="Path 1287" d="M.426 2.2A1.288 1.288 0 0 1 .6.149 1.706 1.706 0 0 1 1.8.07a1.168 1.168 0 0 1 .591.3 1.239 1.239 0 0 1 .245.86 1.439 1.439 0 0 1-.257.942 1.17 1.17 0 0 1-.792.366A1.554 1.554 0 0 1 .426 2.2" transform="rotate(77.95 -175.26 319.95)" style="fill:#9f4641"/>
                <path data-name="Path 1288" d="M.372 1.919A1.124 1.124 0 0 1 .525.13 1.49 1.49 0 0 1 1.569.061a1.02 1.02 0 0 1 .516.264 1.081 1.081 0 0 1 .214.751 1.257 1.257 0 0 1-.224.823 1.021 1.021 0 0 1-.692.32 1.358 1.358 0 0 1-1.011-.3" transform="rotate(77.95 -173.486 320.723)" style="fill:#9f4641"/>
                <path data-name="Path 1289" d="M1.907 2.12a.9.9 0 0 1-.459.27A1.238 1.238 0 0 1 0 1.054 1.131 1.131 0 0 1 .166.415a.962.962 0 0 1 .4-.3 1.128 1.128 0 0 1 1.475.412 1.451 1.451 0 0 1-.134 1.593" transform="rotate(77.95 -173.683 318.281)" style="fill:#9f4641"/>
            </g>
        </g>
    </g>
</svg>
