<svg xmlns="http://www.w3.org/2000/svg" width="73" height="72" viewBox="0 0 73 72">
    <g data-name="Group 72" transform="translate(-251 -56)">
        <g data-name="Group 27">
            <path data-name="Path 111" d="M67.573 45.151a58.384 58.384 0 0 1-.06 7.725.854.854 0 0 1-.93 1.055 45.493 45.493 0 0 1-6.746-.207 1.239 1.239 0 0 1-.447-.108c-.392-.21-.431-.746-.421-1.189q.08-3.534.163-7.066c0-.124.044-.364.168-.369 2.748-.1 5.523.08 8.273.159" transform="translate(235.682 74.025)" style="fill:#233239"/>
            <path data-name="Path 112" d="M58.4 69.757a21.848 21.848 0 0 1-8.211-4.491 10.012 10.012 0 0 1-3.374-7.9A1.632 1.632 0 0 1 47.472 56a1.785 1.785 0 0 1 .875-.136c3.095.048 6.249.152 9.216-.728s5.9-3.315 6.778-6.283a10.931 10.931 0 0 1-7.477-3.282 7.1 7.1 0 0 1-2.153-4.353 1.88 1.88 0 0 1 .677-1.783 2.242 2.242 0 0 1 1.064-.223c2.812-.115 5.7-.247 8.274-1.386s4.917-3.865 4.994-6.679a9.13 9.13 0 0 1-8.759-2.229c-.9-.894-1.573-2.49-.619-3.33a2.841 2.841 0 0 1 .9-.463 24.044 24.044 0 0 0 13.421-12.976 1.032 1.032 0 0 1 1.946.071A28.144 28.144 0 0 0 88.28 26.728a1.4 1.4 0 0 1 .451.373c.38.564-.214 1.271-.772 1.658A16.435 16.435 0 0 1 77.7 31.423c2.126 4.862 8.218 7.053 12.991 6.458a.967.967 0 0 1 .744.1.88.88 0 0 1 .242.53 7.991 7.991 0 0 1-3.107 7.516 13.611 13.611 0 0 1-8.893 2.564c.62 3.089 3.745 5.645 6.885 6.917a26.18 26.18 0 0 0 10.28 1.377.736.736 0 0 1 .816.8 14.38 14.38 0 0 1-3.874 7.341c-3.4 3.7-11.816 6.058-16.339 6.346-6.378.406-12.922.224-19.041-1.621" transform="translate(226.338 48.346)" style="fill:#f9fbfa"/>
            <path data-name="Path 113" d="M62.406 20.941a1.653 1.653 0 0 0 1.515-.535 2.028 2.028 0 0 0 .475-1.561 1.357 1.357 0 0 0-.256-.705c-1.656-2.087-4.416 2.269-1.734 2.8" transform="translate(237.459 53.014)" style="fill:#7f281b"/>
            <path data-name="Path 114" d="M62.479 26.752a1.634 1.634 0 0 0 1.859-.4 1.938 1.938 0 0 0 .422-1.2 1.636 1.636 0 0 0-.21-.923 2.024 2.024 0 0 0-2.635-.38 1.859 1.859 0 0 0 .564 2.9" transform="translate(237.571 57.572)" style="fill:#7f281b"/>
            <path data-name="Path 115" d="M65.84 30.648a1.627 1.627 0 0 0 1.833-.426 1.793 1.793 0 0 0-1.573-2.956c-1.5.29-1.582 2.787-.265 3.383" transform="translate(240.242 60.423)" style="fill:#7f281b"/>
            <path data-name="Path 116" d="M64.579 44.632a1.627 1.627 0 0 0 1.833-.424 1.793 1.793 0 0 0-1.568-2.957c-1.5.288-1.582 2.787-.265 3.381" transform="translate(239.275 71.153)" style="fill:#7f281b"/>
            <path data-name="Path 117" d="M57.338 29.981a2.381 2.381 0 0 0 .244 1.368 1.622 1.622 0 0 0 1.585.726 1.993 1.993 0 0 0 1.446-1.037 2.06 2.06 0 0 0-.223-2.3c-1.218-1.359-2.958-.316-3.052 1.241" transform="translate(234.424 61.096)" style="fill:#7f281b"/>
            <path data-name="Path 118" d="M61.354 32.228a1.72 1.72 0 0 0 .606 1.541 2.442 2.442 0 0 0 1.343.391 1.554 1.554 0 0 0 .52-.032 1.272 1.272 0 0 0 .551-.368 2.193 2.193 0 0 0 .59-1.769 1.921 1.921 0 0 0-1.1-1.483 1.867 1.867 0 0 0-2.51 1.72" transform="translate(237.505 62.823)" style="fill:#7f281b"/>
            <path data-name="Path 119" d="M57.657 36.718a1.861 1.861 0 0 0 1.566 1.412 2.129 2.129 0 0 0 2.032-.831c2.022-2.891-4.217-4.116-3.6-.581" transform="translate(234.642 66.038)" style="fill:#7f281b"/>
            <path data-name="Path 120" d="M66.659 40.244a1.517 1.517 0 0 0 .608-.134 1.577 1.577 0 0 0 .514-.527 2.228 2.228 0 0 0 .458-1.032c.122-1.485-2.326-2.713-3.273-1.409a1.919 1.919 0 0 0 1.693 3.1" transform="translate(239.967 67.602)" style="fill:#7f281b"/>
            <path data-name="Path 121" d="M70.353 42.44a1.917 1.917 0 0 0 2.135-.191 1.755 1.755 0 0 0-1.244-3.075 1.8 1.8 0 0 0-.891 3.266" transform="translate(243.814 69.583)" style="fill:#7f281b"/>
            <path data-name="Path 122" d="M60.126 39.821a1.718 1.718 0 0 0 1.181 1.34 1.5 1.5 0 0 0 .933.055 1.788 1.788 0 0 0 .585-2.667 1.537 1.537 0 0 0-2.7 1.272" transform="translate(236.561 68.669)" style="fill:#7f281b"/>
            <path data-name="Path 123" d="M58.964 43.858c1.617-1.546-.868-4.459-2.361-2.842s.58 4.544 2.361 2.842" transform="translate(233.475 70.634)" style="fill:#7f281b"/>
            <path data-name="Path 124" d="M51.676 41.726a1.869 1.869 0 0 0 1 .164 1.583 1.583 0 0 0 1.274-1.5c.049-1.564-1.707-2.08-2.881-1.386-1.218.719-.486 2.243.6 2.716" transform="translate(229.138 69.226)" style="fill:#7f281b"/>
        </g>
        <circle data-name="Ellipse 29" cx="1.5" cy="1.5" r="1.5" transform="translate(251 100)" style="fill:#fff"/>
        <circle data-name="Ellipse 30" cx="1" cy="1" r="1" transform="translate(262 64)" style="fill:#fff"/>
        <circle data-name="Ellipse 31" cx="2" cy="2" r="2" transform="translate(270 86)" style="fill:#fff"/>
        <circle data-name="Ellipse 32" cx="1" cy="1" r="1" transform="translate(313 56)" style="fill:#fff"/>
        <circle data-name="Ellipse 33" cx="1.5" cy="1.5" r="1.5" transform="translate(319 97)" style="fill:#fff"/>
    </g>
</svg>
